<!-- Generated by IcoMoon.io -->
<svg version="1.1" xmlns="http://www.w3.org/2000/svg" width="32" height="32" viewBox="0 0 32 32">
<title>icon-cart</title>
<path fill="#000" d="M31.332 7.437c-0.141-0.21-0.351-0.281-0.631-0.281h-22.46l-0.982-6.036h-5.966c-0.421 0-0.772 0.351-0.772 0.772s0.351 0.772 0.772 0.772h4.562l2.808 17.266c0 0 0 0 0 0 0.070 0.351 0.421 0.631 0.772 0.631h19.302c0.421 0 0.702-0.281 0.772-0.631l1.895-11.862c0.141-0.21 0.070-0.421-0.070-0.631zM14.768 19.088h-4.562l-0.702-4.352h5.264v4.352zM14.768 13.122h-5.545l-0.702-4.352h6.247v4.352zM21.927 19.088h-5.615v-4.352h5.615v4.352zM21.927 13.122h-5.615v-4.352h5.615v4.352zM28.104 19.088h-4.562v-4.352h5.264l-0.702 4.352zM29.086 13.122h-5.545v-4.352h6.247l-0.702 4.352zM23.893 22.738c-2.246 0-4.071 1.825-4.071 4.071s1.825 4.071 4.071 4.071c2.246 0 4.071-1.825 4.071-4.071s-1.825-4.071-4.071-4.071zM23.893 29.265c-1.333 0-2.457-1.123-2.457-2.457s1.123-2.457 2.457-2.457c1.333 0 2.457 1.123 2.457 2.457s-1.123 2.457-2.457 2.457zM14.066 22.738c-2.246 0-4.071 1.825-4.071 4.071s1.825 4.071 4.071 4.071c2.246 0 4.071-1.825 4.071-4.071s-1.825-4.071-4.071-4.071zM14.066 29.265c-1.333 0-2.457-1.123-2.457-2.457s1.123-2.457 2.457-2.457c1.333 0 2.457 1.123 2.457 2.457s-1.123 2.457-2.457 2.457z"></path>
</svg>
