<!-- Generated by IcoMoon.io -->
<svg version="1.1" xmlns="http://www.w3.org/2000/svg" width="32" height="32" viewBox="0 0 32 32">
<title>icon-store-locations</title>
<path d="M21.36 24.837l-1.086 1.376c1.448 0.435 2.318 1.086 2.318 1.593 0 0.869-2.607 2.173-6.518 2.173s-6.518-1.304-6.518-2.173c0-0.507 0.869-1.086 2.318-1.593l-1.086-1.376c-1.666 0.652-2.825 1.593-2.825 2.898 0 2.463 4.128 3.766 8.184 3.766s8.184-1.304 8.184-3.766c-0.145-1.231-1.304-2.245-2.969-2.898zM16 0.5c-5.867 0-10.72 4.78-10.72 10.72 0 2.535 0.869 4.925 2.535 6.88l7.171 8.909c0.217 0.29 0.58 0.435 1.014 0.435 0.362 0 0.724-0.145 1.014-0.435l7.171-8.909c1.593-1.956 2.535-4.346 2.535-6.88 0-5.867-4.853-10.72-10.72-10.72zM22.953 17.014l-6.953 8.547-6.88-8.474-0.073-0.073c-1.376-1.666-2.101-3.694-2.101-5.867 0-4.997 4.056-9.054 9.054-9.054s9.054 4.056 9.054 9.054c0 2.173-0.724 4.273-2.101 5.867zM16 5.716c-2.969 0-5.432 2.463-5.432 5.432s2.463 5.432 5.432 5.432c2.969 0 5.432-2.463 5.432-5.432s-2.463-5.432-5.432-5.432zM16 15.348c-2.318 0-4.201-1.883-4.201-4.201s1.883-4.201 4.201-4.201c2.318 0 4.201 1.883 4.201 4.201s-1.883 4.201-4.201 4.201z"></path>
</svg>
