<!-- Generated by IcoMoon.io -->
<svg version="1.1" xmlns="http://www.w3.org/2000/svg" width="32" height="32" viewBox="0 0 32 32">
<title>icon-user-account</title>
<path d="M15.999 31.5c-9.3 0-12.256-1.947-12.328-2.019l-0.288-0.216-0.072-0.288c-0.793-3.821-0.216-6.921 1.731-9.3 3.605-4.47 10.67-4.47 10.958-4.47s7.281 0.072 10.958 4.47c1.947 2.379 2.524 5.479 1.731 9.3l-0.072 0.288-0.288 0.216c-0.072 0.072-3.028 2.019-12.328 2.019zM4.896 28.256c0.865 0.433 3.965 1.586 11.174 1.586 7.138 0 10.31-1.226 11.174-1.586 0.577-3.1 0.072-5.695-1.514-7.57-3.1-3.821-9.588-3.893-9.66-3.893s-6.56 0.072-9.66 3.893c-1.586 1.874-2.091 4.47-1.514 7.57zM15.999 13.981c-0.288 0-0.865-0.072-1.009-0.072h-0.072c-2.235-0.36-4.038-2.235-4.686-4.902-0.865-3.677-0.216-6.417 1.947-7.714 1.298-0.793 3.388-0.793 3.749-0.793 0.433 0 2.451 0.072 3.749 0.793 2.162 1.298 2.812 4.038 1.947 7.714-0.649 2.667-2.379 4.542-4.686 4.902h-0.072c0 0.072-0.577 0.072-0.865 0.072zM15.206 12.324c0.288 0 0.721 0.072 0.793 0.072 0.144 0 0.505-0.072 0.793-0.072 1.586-0.288 2.812-1.658 3.316-3.677 0.433-1.731 0.793-4.758-1.226-5.984-0.649-0.433-1.947-0.577-2.884-0.577s-2.235 0.216-2.884 0.577c-2.019 1.226-1.658 4.253-1.226 5.984 0.505 2.019 1.731 3.388 3.316 3.677z"></path>
</svg>
