<!-- Generated by IcoMoon.io -->
<svg version="1.1" xmlns="http://www.w3.org/2000/svg" width="32" height="32" viewBox="0 0 32 32">
<title>icon-contact</title>
<path d="M28.415 11.495c-0.78-6.384-5.888-10.995-12.415-10.995h-0.213c-6.597 0-11.634 4.611-12.415 11.066-1.347 0.568-2.27 2.128-2.27 3.973v0.78c0 2.341 1.49 4.185 3.334 4.185h0.851c0.426 1.064 1.419 1.844 2.483 1.844 1.49 0 2.696-1.347 2.696-3.050v-6.739c0-1.703-1.206-3.050-2.696-3.050-1.064 0-2.057 0.709-2.483 1.844h-0.213c0.851-5.462 5.108-9.222 10.783-9.222h0.212c5.675 0 10.002 3.76 10.783 9.222h-0.142c-0.426-1.064-1.419-1.844-2.483-1.844-1.49 0-2.696 1.347-2.696 3.050v6.739c0 1.703 1.206 3.050 2.696 3.050 0.851 0 1.632-0.497 2.128-1.277-0.851 2.696-2.696 4.753-5.037 6.030-0.426-0.497-1.064-0.851-1.773-0.851-0.212 0-0.426 0-0.638 0.071-0.922 0.284-1.844 0.355-2.767 0.355-1.347 0-2.412 1.064-2.412 2.412s1.064 2.412 2.412 2.412c1.419 0 2.838-0.212 4.114-0.568 1.064-0.284 1.773-1.347 1.703-2.412 3.121-1.632 5.462-4.54 6.314-8.158 1.49-0.426 2.625-2.128 2.625-4.114v-0.78c-0.142-1.844-1.135-3.405-2.483-3.973zM6.423 12.914l0.142-0.638c0.142-0.638 0.568-1.135 1.064-1.135 0.568 0 1.064 0.709 1.064 1.49v6.739c0 0.78-0.497 1.49-1.064 1.49-0.497 0-0.993-0.497-1.064-1.135l-0.142-0.638h-2.128c-0.922 0-1.703-1.206-1.703-2.625v-0.78c0-1.419 0.78-2.625 1.703-2.625h2.128zM19.689 29.514c-1.206 0.355-2.412 0.497-3.689 0.497-0.426 0-0.78-0.355-0.78-0.78s0.355-0.78 0.78-0.78c1.135 0 2.199-0.142 3.263-0.426 0.071 0 0.142 0 0.212 0 0.355 0 0.638 0.212 0.78 0.568 0.071 0.355-0.142 0.851-0.568 0.922zM29.195 16.39c0 1.419-0.78 2.625-1.703 2.625h-2.128l-0.142 0.638c-0.142 0.638-0.568 1.135-1.064 1.135-0.568 0-1.064-0.638-1.064-1.49v-6.739c0-0.78 0.497-1.49 1.064-1.49 0.497 0 0.993 0.497 1.064 1.135l0.142 0.638h2.128c0.922 0 1.703 1.206 1.703 2.625v0.922z"></path>
</svg>
